<svg width="68" height="32" viewBox="0 0 68 32" fill="none" xmlns="http://www.w3.org/2000/svg">
<path d="M24.8246 6.26729C24.684 5.47641 24.3626 4.80826 23.9342 4.24919C23.8739 4.16737 23.7802 4.11965 23.6798 4.11283C23.5793 4.10601 23.4789 4.1401 23.4053 4.20828L20.3323 7.11271L19.7097 2.89242C19.6963 2.79016 19.636 2.70152 19.5557 2.64698C19.4754 2.59244 19.3683 2.57198 19.2745 2.59244C18.7122 2.72879 18.1565 2.98106 17.641 3.35604C15.9806 4.58327 15.3245 6.87408 16.0878 8.81719C17.1589 11.5648 20.4193 12.6284 22.8697 10.9853C24.376 9.96942 25.1526 8.08085 24.8246 6.27411V6.26729Z" fill="url(#paint0_linear_892_16033)" style=""/>
<path d="M24.6372 2.08782C24.751 1.97873 24.7778 1.8151 24.7109 1.67875C24.6975 1.65147 24.6774 1.6242 24.6573 1.59693C23.5526 0.383342 21.9325 -0.189362 20.3324 0.0560826C20.1449 0.0833542 20.0177 0.26062 20.0445 0.451521L20.8211 5.70813L24.6439 2.08782H24.6372Z" fill="url(#paint1_linear_892_16033)" style=""/>
<path d="M1.76747 28.8683V29.3251H1.16493V31.1933H0.609254V29.3251H0.00671387V28.8683H1.77416H1.76747Z" fill="#021C63" style="fill:#021C63;fill:color(display-p3 0.0078 0.1098 0.3882);fill-opacity:1;"/>
<path d="M3.46797 30.7842H2.61772L2.48382 31.1933H1.90137L2.72484 28.8683H3.36755L4.19102 31.1933H3.60187L3.46797 30.7842ZM3.32738 30.341L3.04619 29.4888L2.76501 30.341H3.32738Z" fill="#021C63" style="fill:#021C63;fill:color(display-p3 0.0078 0.1098 0.3882);fill-opacity:1;"/>
<path d="M5.84463 31.1933L5.38268 30.4842L4.97429 31.1933H4.34497L5.07472 30.0138L4.32489 28.8683H4.97429L5.42955 29.5706L5.83124 28.8683H6.46056L5.73751 30.041L6.49403 31.1933H5.84463Z" fill="#021C63" style="fill:#021C63;fill:color(display-p3 0.0078 0.1098 0.3882);fill-opacity:1;"/>
<path d="M10.0423 28.8683V31.1933H9.48662V29.7956L8.97781 31.1933H8.52925L8.01374 29.7956V31.1933H7.45807V28.8683H8.11417L8.75688 30.4774L9.39289 28.8683H10.049H10.0423Z" fill="#021C63" style="fill:#021C63;fill:color(display-p3 0.0078 0.1098 0.3882);fill-opacity:1;"/>
<path d="M11.8634 30.7842H11.0131L10.8792 31.1933H10.2968L11.1202 28.8683H11.7629L12.5864 31.1933H11.9973L11.8634 30.7842ZM11.7228 30.341L11.4416 29.4888L11.1604 30.341H11.7228Z" fill="#021C63" style="fill:#021C63;fill:color(display-p3 0.0078 0.1098 0.3882);fill-opacity:1;"/>
<path d="M14.8826 31.1933H14.327L13.3964 29.7615V31.1933H12.8407V28.8683H13.3964L14.327 30.3069V28.8683H14.8826V31.1933Z" fill="#021C63" style="fill:#021C63;fill:color(display-p3 0.0078 0.1098 0.3882);fill-opacity:1;"/>
<path d="M16.7105 30.7842H15.8602L15.7263 31.1933H15.1439L15.9673 28.8683H16.61L17.4335 31.1933H16.8444L16.7105 30.7842ZM16.5632 30.341L16.282 29.4888L16.0008 30.341H16.5632Z" fill="#021C63" style="fill:#021C63;fill:color(display-p3 0.0078 0.1098 0.3882);fill-opacity:1;"/>
<path d="M19.201 29.6047C19.1608 29.5297 19.1006 29.4684 19.0269 29.4275C18.9466 29.3866 18.8596 29.3661 18.7525 29.3661C18.5717 29.3661 18.4311 29.4275 18.3173 29.5434C18.2102 29.6661 18.1566 29.8229 18.1566 30.0274C18.1566 30.2388 18.2102 30.4092 18.324 30.532C18.4378 30.6547 18.5918 30.7092 18.7926 30.7092C18.9265 30.7092 19.047 30.6751 19.1408 30.6001C19.2345 30.532 19.3014 30.4297 19.3483 30.2933H18.6453V29.8774H19.8571V30.4024C19.8169 30.5456 19.7433 30.6751 19.6496 30.7979C19.5491 30.9206 19.4286 31.016 19.2747 31.091C19.1207 31.166 18.9533 31.2069 18.7591 31.2069C18.5315 31.2069 18.3307 31.1592 18.1566 31.0569C17.9825 30.9547 17.8419 30.8183 17.7415 30.6411C17.6411 30.4638 17.5942 30.2592 17.5942 30.0274C17.5942 29.7956 17.6411 29.5911 17.7415 29.4138C17.8419 29.2366 17.9758 29.0934 18.1499 28.9911C18.324 28.8888 18.5248 28.8411 18.7525 28.8411C19.0269 28.8411 19.2546 28.9093 19.442 29.0457C19.6295 29.182 19.7567 29.3661 19.8169 29.6047H19.201Z" fill="#021C63" style="fill:#021C63;fill:color(display-p3 0.0078 0.1098 0.3882);fill-opacity:1;"/>
<path d="M20.7207 29.3183V29.7888H21.4638V30.2251H20.7207V30.7365H21.5642V31.1933H20.165V28.8683H21.5642V29.3251H20.7207V29.3183Z" fill="#021C63" style="fill:#021C63;fill:color(display-p3 0.0078 0.1098 0.3882);fill-opacity:1;"/>
<path d="M24.5099 28.8683V31.1933H23.9543V29.7956L23.4455 31.1933H22.9969L22.4814 29.7956V31.1933H21.9257V28.8683H22.5818L23.2245 30.4774L23.8605 28.8683H24.5166H24.5099Z" fill="#021C63" style="fill:#021C63;fill:color(display-p3 0.0078 0.1098 0.3882);fill-opacity:1;"/>
<path d="M25.4674 29.3183V29.7888H26.2105V30.2251H25.4674V30.7365H26.3109V31.1933H24.9117V28.8683H26.3109V29.3251H25.4674V29.3183Z" fill="#021C63" style="fill:#021C63;fill:color(display-p3 0.0078 0.1098 0.3882);fill-opacity:1;"/>
<path d="M28.7077 31.1933H28.152L27.2214 29.7615V31.1933H26.6658V28.8683H27.2214L28.152 30.3069V28.8683H28.7077V31.1933Z" fill="#021C63" style="fill:#021C63;fill:color(display-p3 0.0078 0.1098 0.3882);fill-opacity:1;"/>
<path d="M30.7562 28.8683V29.3251H30.1537V31.1933H29.598V29.3251H28.9955V28.8683H30.7629H30.7562Z" fill="#021C63" style="fill:#021C63;fill:color(display-p3 0.0078 0.1098 0.3882);fill-opacity:1;"/>
<path d="M32.2827 28.8683V31.1933H31.727V28.8683H32.2827Z" fill="#021C63" style="fill:#021C63;fill:color(display-p3 0.0078 0.1098 0.3882);fill-opacity:1;"/>
<path d="M34.7265 31.1933H34.1708L33.2402 29.7615V31.1933H32.6845V28.8683H33.2402L34.1708 30.3069V28.8683H34.7265V31.1933Z" fill="#021C63" style="fill:#021C63;fill:color(display-p3 0.0078 0.1098 0.3882);fill-opacity:1;"/>
<path d="M36.6143 28.8683V29.3251H35.6837V29.816H36.38V30.2592H35.6837V31.2001H35.1281V28.8752H36.6143V28.8683Z" fill="#021C63" style="fill:#021C63;fill:color(display-p3 0.0078 0.1098 0.3882);fill-opacity:1;"/>
<path d="M37.3977 31.0638C37.2169 30.9615 37.0763 30.8183 36.9692 30.6411C36.8621 30.4638 36.8085 30.2524 36.8085 30.0274C36.8085 29.8024 36.8621 29.5979 36.9692 29.4138C37.0763 29.2297 37.2169 29.0934 37.3977 28.9911C37.5784 28.8888 37.7726 28.8411 37.9868 28.8411C38.2011 28.8411 38.3952 28.8888 38.576 28.9911C38.7567 29.0934 38.8973 29.2366 38.9978 29.4138C39.0982 29.5979 39.1517 29.8024 39.1517 30.0274C39.1517 30.2524 39.0982 30.457 38.9978 30.6411C38.8906 30.8251 38.7501 30.9683 38.576 31.0638C38.3952 31.166 38.2011 31.2138 37.9868 31.2138C37.7726 31.2138 37.5784 31.166 37.3977 31.0638ZM38.4287 30.5115C38.5358 30.3888 38.5961 30.2252 38.5961 30.0206C38.5961 29.8161 38.5425 29.6525 38.4287 29.5297C38.3216 29.407 38.1743 29.3456 37.9935 29.3456C37.8128 29.3456 37.6655 29.407 37.5517 29.5297C37.4445 29.6525 37.391 29.8161 37.391 30.0206C37.391 30.2252 37.4445 30.3888 37.5517 30.5115C37.6588 30.6342 37.8061 30.6956 37.9935 30.6956C38.181 30.6956 38.3216 30.6342 38.4287 30.5115Z" fill="#021C63" style="fill:#021C63;fill:color(display-p3 0.0078 0.1098 0.3882);fill-opacity:1;"/>
<path d="M40.6313 31.1933L40.1559 30.3137H40.022V31.1933H39.4664V28.8683H40.397C40.5777 28.8683 40.7317 28.9024 40.8589 28.9638C40.9861 29.0252 41.0798 29.1138 41.1468 29.2297C41.207 29.3388 41.2405 29.4683 41.2405 29.6047C41.2405 29.7615 41.2003 29.8979 41.1133 30.0206C41.0263 30.1433 40.8991 30.2251 40.7317 30.2797L41.2606 31.2001H40.6313V31.1933ZM40.022 29.9115H40.3635C40.4639 29.9115 40.5442 29.8842 40.5911 29.8365C40.6447 29.7888 40.6648 29.7138 40.6648 29.6183C40.6648 29.5229 40.638 29.4615 40.5911 29.407C40.5376 29.3592 40.4639 29.332 40.3635 29.332H40.022V29.9115Z" fill="#021C63" style="fill:#021C63;fill:color(display-p3 0.0078 0.1098 0.3882);fill-opacity:1;"/>
<path d="M44.1729 28.8683V31.1933H43.6172V29.7956L43.1084 31.1933H42.6599L42.1444 29.7956V31.1933H41.5887V28.8683H42.2448L42.8875 30.4774L43.5235 28.8683H44.1796H44.1729Z" fill="#021C63" style="fill:#021C63;fill:color(display-p3 0.0078 0.1098 0.3882);fill-opacity:1;"/>
<path d="M45.9938 30.7842H45.1436L45.0097 31.1933H44.4272L45.2507 28.8683H45.8934L46.7169 31.1933H46.1277L45.9938 30.7842ZM45.8533 30.341L45.5721 29.4888L45.2909 30.341H45.8533Z" fill="#021C63" style="fill:#021C63;fill:color(display-p3 0.0078 0.1098 0.3882);fill-opacity:1;"/>
<path d="M48.6116 28.8683V29.3251H48.009V31.1933H47.4534V29.3251H46.8508V28.8683H48.6183H48.6116Z" fill="#021C63" style="fill:#021C63;fill:color(display-p3 0.0078 0.1098 0.3882);fill-opacity:1;"/>
<path d="M49.4484 28.8683V31.1933H48.8927V28.8683H49.4484Z" fill="#021C63" style="fill:#021C63;fill:color(display-p3 0.0078 0.1098 0.3882);fill-opacity:1;"/>
<path d="M50.3389 31.0638C50.1581 30.9615 50.0176 30.8183 49.9104 30.6411C49.8033 30.4638 49.7498 30.2524 49.7498 30.0274C49.7498 29.8024 49.8033 29.5979 49.9104 29.4138C50.0176 29.2297 50.1581 29.0934 50.3389 28.9911C50.5197 28.8888 50.7138 28.8411 50.9281 28.8411C51.1423 28.8411 51.3364 28.8888 51.5172 28.9911C51.698 29.0934 51.8386 29.2366 51.939 29.4138C52.0394 29.5979 52.093 29.8024 52.093 30.0274C52.093 30.2524 52.0394 30.457 51.939 30.6411C51.8319 30.8251 51.6913 30.9683 51.5172 31.0638C51.3364 31.166 51.1423 31.2138 50.9281 31.2138C50.7138 31.2138 50.5197 31.166 50.3389 31.0638ZM51.3699 30.5115C51.477 30.3888 51.5373 30.2252 51.5373 30.0206C51.5373 29.8161 51.4837 29.6525 51.3699 29.5297C51.2628 29.407 51.1155 29.3456 50.9348 29.3456C50.754 29.3456 50.6067 29.407 50.4929 29.5297C50.3858 29.6525 50.3322 29.8161 50.3322 30.0206C50.3322 30.2252 50.3858 30.3888 50.4929 30.5115C50.6 30.6342 50.7473 30.6956 50.9348 30.6956C51.1222 30.6956 51.2628 30.6342 51.3699 30.5115Z" fill="#021C63" style="fill:#021C63;fill:color(display-p3 0.0078 0.1098 0.3882);fill-opacity:1;"/>
<path d="M54.4496 31.1933H53.8939L52.9633 29.7615V31.1933H52.4077V28.8683H52.9633L53.8939 30.3069V28.8683H54.4496V31.1933Z" fill="#021C63" style="fill:#021C63;fill:color(display-p3 0.0078 0.1098 0.3882);fill-opacity:1;"/>
<path d="M55.9223 31.132C55.7884 31.0774 55.6813 30.9956 55.6077 30.8865C55.5273 30.7774 55.4872 30.6479 55.4805 30.4979H56.0696C56.0763 30.5865 56.1098 30.6479 56.1566 30.6956C56.2035 30.7433 56.2705 30.7638 56.3508 30.7638C56.4311 30.7638 56.4981 30.7433 56.545 30.7024C56.5918 30.6615 56.6186 30.6138 56.6186 30.5388C56.6186 30.4843 56.5985 30.4365 56.5583 30.3956C56.5182 30.3547 56.4713 30.3275 56.4177 30.3002C56.3642 30.2729 56.2839 30.2456 56.1834 30.2184C56.0361 30.1706 55.9156 30.1229 55.8219 30.082C55.7282 30.0343 55.6478 29.9661 55.5809 29.8775C55.5139 29.7888 55.4805 29.6661 55.4805 29.5229C55.4805 29.3048 55.5608 29.1343 55.7148 29.0116C55.8688 28.8889 56.0696 28.8275 56.3173 28.8275C56.565 28.8275 56.7726 28.8889 56.9266 29.0116C57.0805 29.1343 57.1609 29.3048 57.1743 29.5229H56.5717C56.5717 29.4479 56.5383 29.3866 56.4914 29.3457C56.4445 29.3048 56.3776 29.2843 56.2972 29.2843C56.2303 29.2843 56.1767 29.3048 56.1366 29.3389C56.0964 29.3729 56.0763 29.4275 56.0763 29.4957C56.0763 29.5707 56.1098 29.632 56.1834 29.6729C56.2504 29.7138 56.3642 29.7616 56.5115 29.8093C56.6588 29.857 56.7793 29.9116 56.873 29.9525C56.9667 30.0002 57.0471 30.0684 57.114 30.157C57.181 30.2456 57.2144 30.3615 57.2144 30.4979C57.2144 30.6343 57.181 30.7502 57.114 30.8593C57.0471 30.9683 56.9533 31.057 56.8261 31.1183C56.6989 31.1797 56.5516 31.2138 56.3776 31.2138C56.2035 31.2138 56.0629 31.1865 55.929 31.132H55.9223Z" fill="#021C63" style="fill:#021C63;fill:color(display-p3 0.0078 0.1098 0.3882);fill-opacity:1;"/>
<path d="M59.5041 28.8683L58.7141 30.4228V31.1933H58.1585V30.4228L57.3685 28.8683H57.9978L58.4397 29.8433L58.8815 28.8683H59.5041Z" fill="#021C63" style="fill:#021C63;fill:color(display-p3 0.0078 0.1098 0.3882);fill-opacity:1;"/>
<path d="M60.1067 31.132C59.9728 31.0774 59.8657 30.9956 59.7921 30.8865C59.7117 30.7774 59.6716 30.6479 59.6649 30.4979H60.254C60.2607 30.5865 60.2942 30.6479 60.341 30.6956C60.3879 30.7433 60.4549 30.7638 60.5352 30.7638C60.6155 30.7638 60.6825 30.7433 60.7293 30.7024C60.7762 30.6615 60.803 30.6138 60.803 30.5388C60.803 30.4843 60.7829 30.4365 60.7427 30.3956C60.7026 30.3547 60.6557 30.3275 60.6021 30.3002C60.5486 30.2729 60.4682 30.2456 60.3678 30.2184C60.2205 30.1706 60.1 30.1229 60.0063 30.082C59.9126 30.0343 59.8322 29.9661 59.7653 29.8775C59.6983 29.7888 59.6649 29.6661 59.6649 29.5229C59.6649 29.3048 59.7452 29.1343 59.8992 29.0116C60.0532 28.8889 60.254 28.8275 60.5017 28.8275C60.7494 28.8275 60.957 28.8889 61.1109 29.0116C61.2649 29.1343 61.3453 29.3048 61.3587 29.5229H60.7561C60.7561 29.4479 60.7226 29.3866 60.6758 29.3457C60.6289 29.3048 60.562 29.2843 60.4816 29.2843C60.4147 29.2843 60.3611 29.3048 60.321 29.3389C60.2808 29.3729 60.2607 29.4275 60.2607 29.4957C60.2607 29.5707 60.2942 29.632 60.3678 29.6729C60.4348 29.7138 60.5486 29.7616 60.6959 29.8093C60.8432 29.857 60.9637 29.9116 61.0574 29.9525C61.1511 30.0002 61.2315 30.0684 61.2984 30.157C61.3654 30.2456 61.3988 30.3615 61.3988 30.4979C61.3988 30.6343 61.3654 30.7502 61.2984 30.8593C61.2315 30.9683 61.1377 31.057 61.0105 31.1183C60.8833 31.1797 60.736 31.2138 60.562 31.2138C60.3879 31.2138 60.2473 31.1865 60.1134 31.132H60.1067Z" fill="#021C63" style="fill:#021C63;fill:color(display-p3 0.0078 0.1098 0.3882);fill-opacity:1;"/>
<path d="M63.3671 28.8683V29.3251H62.7646V31.1933H62.2089V29.3251H61.6064V28.8683H63.3738H63.3671Z" fill="#021C63" style="fill:#021C63;fill:color(display-p3 0.0078 0.1098 0.3882);fill-opacity:1;"/>
<path d="M64.2039 29.3183V29.7888H64.9471V30.2251H64.2039V30.7365H65.0475V31.1933H63.6483V28.8683H65.0475V29.3251H64.2039V29.3183Z" fill="#021C63" style="fill:#021C63;fill:color(display-p3 0.0078 0.1098 0.3882);fill-opacity:1;"/>
<path d="M67.9933 28.8683V31.1933H67.4376V29.7956L66.9288 31.1933H66.4802L65.9647 29.7956V31.1933H65.4091V28.8683H66.0652L66.7079 30.4774L67.3439 28.8683H68H67.9933Z" fill="#021C63" style="fill:#021C63;fill:color(display-p3 0.0078 0.1098 0.3882);fill-opacity:1;"/>
<path d="M12.178 10.6102V13.7396H8.00709V26.6459H4.17092V13.7396H0V10.6102H12.178Z" fill="#021C63" style="fill:#021C63;fill:color(display-p3 0.0078 0.1098 0.3882);fill-opacity:1;"/>
<path d="M14.0794 16.8008C14.5681 15.8122 15.2242 15.0486 16.0677 14.5168C16.9046 13.985 17.8419 13.7191 18.8729 13.7191C19.7566 13.7191 20.5265 13.9032 21.196 14.2645C21.8588 14.6327 22.3743 15.11 22.7292 15.7031V13.8964H26.5653V26.6459H22.7292V24.8391C22.3542 25.4323 21.8387 25.9095 21.1692 26.2777C20.5064 26.6459 19.7298 26.8231 18.8461 26.8231C17.8285 26.8231 16.9046 26.5504 16.0677 26.0118C15.2309 25.4732 14.5681 24.7028 14.0794 23.7074C13.5906 22.7119 13.3496 21.5529 13.3496 20.2439C13.3496 18.9348 13.5906 17.7826 14.0794 16.794V16.8008ZM21.9258 17.9667C21.3969 17.4008 20.7475 17.1213 19.9842 17.1213C19.221 17.1213 18.5716 17.4008 18.0427 17.953C17.5138 18.5121 17.246 19.2757 17.246 20.2507C17.246 21.2256 17.5138 21.9961 18.0427 22.5688C18.5716 23.1415 19.221 23.4278 19.9842 23.4278C20.7475 23.4278 21.3969 23.1483 21.9258 22.5824C22.4547 22.0165 22.7225 21.2529 22.7225 20.2779C22.7225 19.303 22.4547 18.5326 21.9258 17.9735V17.9667Z" fill="#021C63" style="fill:#021C63;fill:color(display-p3 0.0078 0.1098 0.3882);fill-opacity:1;"/>
<path d="M47.1789 10.6102V26.6459H43.3427V17.0258L39.8212 26.6459H36.7282L33.1866 17.0054V26.6459H29.3504V10.6102H33.8828L38.3015 21.7097L42.6732 10.6102H47.1789Z" fill="#021C63" style="fill:#021C63;fill:color(display-p3 0.0078 0.1098 0.3882);fill-opacity:1;"/>
<path d="M50.2184 11.967C49.7899 11.5647 49.5757 11.067 49.5757 10.4739C49.5757 9.88071 49.7899 9.35573 50.2184 8.95347C50.6469 8.55122 51.1958 8.34668 51.8653 8.34668C52.5348 8.34668 53.0637 8.55122 53.4922 8.95347C53.9207 9.35573 54.1282 9.86707 54.1282 10.4739C54.1282 11.0807 53.914 11.5647 53.4922 11.967C53.0637 12.3692 52.5214 12.5738 51.8653 12.5738C51.2092 12.5738 50.6402 12.3692 50.2184 11.967ZM53.7734 13.8965V26.6459H49.9372V13.8965H53.7734Z" fill="#021C63" style="fill:#021C63;fill:color(display-p3 0.0078 0.1098 0.3882);fill-opacity:1;"/>
<path d="M59.156 26.2368C58.2455 25.855 57.5158 25.2959 56.9668 24.5459C56.4178 23.8028 56.1299 22.9028 56.1031 21.8528H60.187C60.2473 22.446 60.4481 22.9028 60.7896 23.2096C61.131 23.5232 61.5796 23.68 62.1352 23.68C62.6909 23.68 63.1529 23.5437 63.4809 23.2778C63.809 23.0119 63.9763 22.6437 63.9763 22.1733C63.9763 21.7778 63.8424 21.4506 63.5813 21.1915C63.3202 20.9324 62.9989 20.7211 62.6173 20.5506C62.2357 20.3802 61.6934 20.1961 60.9904 19.9779C59.9728 19.6575 59.1426 19.337 58.4999 19.0166C57.8572 18.6961 57.3015 18.2257 56.8396 17.5985C56.3776 16.9712 56.1433 16.1599 56.1433 15.1508C56.1433 13.6577 56.6722 12.4918 57.7367 11.6464C58.8012 10.801 60.1803 10.3783 61.8875 10.3783C63.5947 10.3783 65.0207 10.801 66.0852 11.6464C67.1497 12.4918 67.7121 13.6713 67.7924 15.1781H63.6416C63.6148 14.6599 63.4274 14.2509 63.0792 13.9577C62.7378 13.6577 62.2959 13.5145 61.7536 13.5145C61.2917 13.5145 60.9168 13.6373 60.6289 13.8895C60.341 14.1418 60.2004 14.5031 60.2004 14.9736C60.2004 15.4917 60.4414 15.894 60.9168 16.1872C61.3921 16.4735 62.1419 16.7871 63.1596 17.1212C64.1772 17.4689 65.0007 17.803 65.6367 18.1234C66.2727 18.4439 66.8217 18.9075 67.2836 19.5143C67.7456 20.1211 67.9799 20.9052 67.9799 21.8665C67.9799 22.8278 67.7523 23.6119 67.297 24.355C66.8418 25.0982 66.179 25.6981 65.3086 26.1345C64.4383 26.5777 63.414 26.7958 62.2357 26.7958C61.0574 26.7958 60.0531 26.6049 59.1426 26.2231L59.156 26.2368Z" fill="#021C63" style="fill:#021C63;fill:color(display-p3 0.0078 0.1098 0.3882);fill-opacity:1;"/>
<defs>
<linearGradient id="paint0_linear_892_16033" x1="16.0208" y1="0.949319" x2="23.2006" y2="10.8412" gradientUnits="userSpaceOnUse">
<stop stop-color="#0066F5" style="stop-color:#0066F5;stop-color:color(display-p3 0.0000 0.4000 0.9608);stop-opacity:1;"/>
<stop offset="1" stop-color="#021C63" style="stop-color:#021C63;stop-color:color(display-p3 0.0078 0.1098 0.3882);stop-opacity:1;"/>
</linearGradient>
<linearGradient id="paint1_linear_892_16033" x1="19.221" y1="-1.36886" x2="26.4008" y2="8.51622" gradientUnits="userSpaceOnUse">
<stop stop-color="#0066F5" style="stop-color:#0066F5;stop-color:color(display-p3 0.0000 0.4000 0.9608);stop-opacity:1;"/>
<stop offset="1" stop-color="#021C63" style="stop-color:#021C63;stop-color:color(display-p3 0.0078 0.1098 0.3882);stop-opacity:1;"/>
</linearGradient>
</defs>
</svg>
